<?xml version="1.0" ?><svg data-name="Layer 1" id="Layer_1" viewBox="0 0 140 140" xmlns="http://www.w3.org/2000/svg"><defs><style>.cls-1{fill:#d7dadb;}.cls-2{fill:#525354;}.cls-3{fill:#52b1b1;}</style></defs><title/><circle class="cls-1" cx="70" cy="70" r="64"/><path class="cls-2" d="M58.69,75.14l-19.8-19.8a1,1,0,0,0-1.41,0L21.92,70.9a1,1,0,0,0,0,1.41l36.77,36.77a1,1,0,0,0,1.41,0L76.36,92.82,118.08,51.1a1,1,0,0,0,0-1.41L102.53,34.13a1,1,0,0,0-1.41,0l-41,41A1,1,0,0,1,58.69,75.14Z"/><path class="cls-3" d="M58.69,73.14l-19.8-19.8a1,1,0,0,0-1.41,0L21.92,68.9a1,1,0,0,0,0,1.41l36.77,36.77a1,1,0,0,0,1.41,0L76.36,90.82,118.08,49.1a1,1,0,0,0,0-1.41L102.53,32.13a1,1,0,0,0-1.41,0l-41,41A1,1,0,0,1,58.69,73.14Z"/></svg>